PathFileType	4	(X/Y/Z)	c:/Users/goper/Files/vsCode/490R/osim_files/C08/C08_Slow_06.trc
DataRate	CameraRate	NumFrames	NumMarkers	Units                	OrigDataRate	OrigDataStartFrame	OrigNumFrames
250.00	250.00	4	36	mm	250.0	1970	2626
                Frame#	Time	LPSIS			LASIS			LTH1			LTH2			LTH3			LTH4			LLFE			LMFE			LSH1			LSH2			LSH3			LSH4			LLMAL			LMMAL			LCAL			LMTP5			LTOE			LMTP1			RPSIS			RASIS			RTH1			RTH2			RTH3			RTH4			RLFE			RMFE			RSH1			RSH2			RSH3			RSH4			RLMAL			RMMAL			RCAL			RMTP1			RTOE			RMTP5		
		X1	Y1	Z1	X2	Y2	Z2	X3	Y3	Z3	X4	Y4	Z4	X5	Y5	Z5	X6	Y6	Z6	X7	Y7	Z7	X8	Y8	Z8	X9	Y9	Z9	X10	Y10	Z10	X11	Y11	Z11	X12	Y12	Z12	X13	Y13	Z13	X14	Y14	Z14	X15	Y15	Z15	X16	Y16	Z16	X17	Y17	Z17	X18	Y18	Z18	X19	Y19	Z19	X20	Y20	Z20	X21	Y21	Z21	X22	Y22	Z22	X23	Y23	Z23	X24	Y24	Z24	X25	Y25	Z25	X26	Y26	Z26	X27	Y27	Z27	X28	Y28	Z28	X29	Y29	Z29	X30	Y30	Z30	X31	Y31	Z31	X32	Y32	Z32	X33	Y33	Z33	X34	Y34	Z34	X35	Y35	Z35	X36	Y36	Z36

1970	7.87600	-2410.86255	1052.87854	151.28241	-2617.83374	1018.90143	235.54044	-2619.22388	750.45233	318.92929	-2651.46289	678.97382	308.71973	-2679.12915	609.59692	298.92847	-2721.61206	714.22559	289.17181	-2691.53882	564.22534	292.04932	-2711.18164	554.48547	164.84558	-2615.16577	468.23999	298.11945	-2605.77539	420.93555	298.49265	-2672.64307	450.55386	303.76050	-2655.27954	407.94458	304.11261	-2534.29395	154.44562	255.22781	-2572.26636	150.79720	175.03603	-2473.51929	148.63972	191.41505	-2619.85645	63.86334	302.66620	-2691.22437	69.65723	253.90935	-2661.52393	52.68625	198.72615	-2411.81372	1052.78796	91.42542	-2609.00732	1016.54370	-1.69982	-2527.38208	753.00171	-51.73618	-2521.22412	675.36414	-31.52331	-2512.38916	598.21851	-26.52497	-2594.05640	674.66193	-3.95951	-2507.52710	525.12439	-2.34660	-2505.72510	521.91095	123.35625	-2443.12549	446.38470	-17.26663	-2443.62280	402.49301	-21.32540	-2504.11646	441.68289	-9.64075	-2498.44922	397.21918	-13.29585	-2412.68018	103.14992	47.38990	-2445.56665	107.71884	132.95676	-2355.33350	80.94930	117.64822	-2570.77100	45.61829	121.14503	-2587.64722	62.85211	66.84733	-2533.61768	45.42136	7.39261
1971	7.88000	-2413.84863	1052.62952	151.30052	-2621.47046	1018.50824	235.53957	-2623.25000	750.46155	318.83871	-2655.54370	679.01404	308.39215	-2683.20166	609.67645	298.33685	-2725.54370	714.38843	288.57434	-2697.88989	565.03564	292.06705	-2714.97485	554.57812	164.36040	-2620.55322	466.28613	297.63104	-2612.23608	419.02966	298.16241	-2678.37964	449.92410	303.45416	-2662.41162	407.25729	304.63586	-2546.49536	150.86725	255.18057	-2583.90454	147.42558	175.04875	-2487.28882	143.07764	191.57190	-2633.99170	62.25616	302.94949	-2705.27539	69.42976	254.37292	-2676.53979	52.12725	199.27577	-2415.14844	1052.61292	91.62774	-2612.27173	1016.11499	-1.90232	-2529.84180	752.82013	-51.73634	-2523.44629	675.18585	-31.51572	-2514.32422	598.05865	-26.38913	-2596.22754	674.31360	-3.88972	-2509.15601	525.02954	-2.25600	-2507.37280	521.83606	123.49087	-2444.55322	446.53928	-17.18559	-2444.79492	402.60269	-21.20774	-2505.49854	441.61343	-9.54655	-2499.58936	397.14462	-13.17377	-2412.90552	103.33907	47.48272	-2445.71362	107.83234	133.09106	-2355.43652	81.13287	117.74632	-2570.83057	45.52999	121.12300	-2587.21191	62.67796	66.49593	-2533.63184	45.40862	7.38149
1972	7.88400	-2417.36304	1052.45618	151.52223	-2624.97925	1017.97028	235.52264	-2627.36621	750.49213	318.63904	-2659.42310	678.89459	308.03558	-2687.30664	609.62939	297.80588	-2729.37793	714.39398	287.96603	-2701.93506	565.05719	291.43954	-2718.60693	554.44269	163.81786	-2625.94580	464.30237	297.41553	-2621.63135	418.68549	303.69473	-2684.12085	449.19391	303.25278	-2670.73633	407.02954	305.65189	-2558.82715	147.35004	255.18845	-2597.18506	144.91573	175.19807	-2499.79785	138.22821	191.34515	-2648.15723	60.75186	303.22357	-2719.38770	69.37589	254.83554	-2690.60059	50.95605	199.57646	-2418.47339	1052.44763	91.85658	-2615.53247	1015.64783	-2.08216	-2532.37915	752.72632	-51.72508	-2525.68530	675.11255	-31.43574	-2516.32959	597.95886	-26.32147	-2598.45801	673.95270	-3.78595	-2510.81348	524.93597	-2.13134	-2509.01074	521.77942	123.57954	-2445.83179	446.61072	-17.04036	-2446.00977	402.73782	-21.11152	-2506.73584	441.60956	-9.35168	-2500.80664	397.11429	-13.06355	-2413.17993	103.53117	47.58553	-2445.97803	107.96786	133.19917	-2354.74976	81.74326	117.68707	-2570.78247	45.80686	120.21216	-2587.14258	62.87025	66.09502	-2533.67822	45.39289	7.35887
1973	7.88800	-2420.79810	1052.22095	151.73180	-2628.58789	1017.46948	235.57144	-2631.08911	750.39801	318.49359	-2663.24707	678.80194	307.68729	-2691.09717	609.56879	297.23175	-2733.10889	714.35358	287.39209	-2705.81128	564.96808	290.81287	-2722.21045	554.27130	163.28506	-2631.21924	462.24820	297.19482	-2627.89893	417.33139	303.59647	-2689.56274	448.55402	302.93100	-2677.33472	405.95959	305.42038	-2571.64136	143.73973	255.00977	-2608.88965	141.68599	175.24510	-2512.78809	133.21571	191.22531	-2662.44165	59.38811	303.47961	-2733.51245	69.38066	255.21408	-2705.09106	50.22867	199.96205	-2421.84644	1052.25317	92.12372	-2618.76025	1015.18329	-2.28329	-2534.82812	752.49872	-51.65730	-2527.94702	674.95471	-31.42823	-2518.25952	597.86639	-26.18667	-2600.69702	673.61865	-3.72467	-2512.70459	524.92096	-2.11318	-2510.68994	521.69916	123.64487	-2447.21045	446.75681	-16.92874	-2447.27002	402.85489	-20.96640	-2508.15186	441.43698	-9.19806	-2502.02686	397.08701	-12.94728	-2413.42749	103.74191	47.69560	-2446.34595	107.98020	133.41878	-2354.90454	81.80916	117.96809	-2570.83594	45.73457	120.20924	-2587.19092	62.78149	66.07123	-2533.70386	45.39505	7.34257
